<svg xmlns="http://www.w3.org/2000/svg" width="30" height="19" viewBox="0 0 30 19">
    <g fill="none" fill-rule="nonzero">
        <path fill="#FFB600" d="M30 9.048c0 4.952-4 9-9 9-4.952 0-9-4.048-9-9 0-4.953 4-9 8.952-9C26 .048 30 4.095 30 9.048z"/>
        <path fill="#F7981D" d="M21 .048c4.952 0 9 4.047 9 9 0 4.952-4 9-9 9-4.952 0-9-4.048-9-9"/>
        <path fill="#FF8500" d="M21 .048c4.952 0 9 4.047 9 9 0 4.952-4 9-9 9"/>
        <path fill="#FF5050" d="M8.905.048C4 .095 0 4.095 0 9.048c0 4.952 4 9 9 9 2.333 0 4.429-.905 6.048-2.334.333-.285.619-.619.904-.952h-1.857a10.986 10.986 0 0 1-.666-.905h3.19a6.1 6.1 0 0 0 .524-.952h-4.238a5.676 5.676 0 0 1-.381-.953h4.952c.286-.904.476-1.857.476-2.857 0-.666-.095-1.285-.19-1.905h-5.524c.048-.333.143-.619.238-.952h4.953a5.676 5.676 0 0 0-.381-.952h-4.19c.142-.334.332-.62.523-.953h3.19a4.528 4.528 0 0 0-.714-.952h-1.762c.286-.333.572-.62.905-.905C13.429 1 11.286.143 8.952.143c0-.095 0-.095-.047-.095z"/>
        <path fill="#E52836" d="M0 9.048c0 4.952 4 9 9 9 2.333 0 4.429-.905 6.048-2.334.333-.285.619-.619.904-.952h-1.857a10.986 10.986 0 0 1-.666-.905h3.19a6.1 6.1 0 0 0 .524-.952h-4.238a5.676 5.676 0 0 1-.381-.953h4.952c.286-.904.476-1.857.476-2.857 0-.666-.095-1.285-.19-1.905h-5.524c.048-.333.143-.619.238-.952h4.953a5.676 5.676 0 0 0-.381-.952h-4.19c.142-.334.332-.62.523-.953h3.19a4.528 4.528 0 0 0-.714-.952h-1.762c.286-.333.572-.62.905-.905C13.429 1 11.286.143 8.952.143h-.047"/>
        <path fill="#CB2026" d="M9 18.048c2.333 0 4.429-.905 6.048-2.334.333-.285.619-.619.904-.952h-1.857a10.986 10.986 0 0 1-.666-.905h3.19a6.1 6.1 0 0 0 .524-.952h-4.238a5.676 5.676 0 0 1-.381-.953h4.952c.286-.904.476-1.857.476-2.857 0-.666-.095-1.285-.19-1.905h-5.524c.048-.333.143-.619.238-.952h4.953a5.676 5.676 0 0 0-.381-.952h-4.19c.142-.334.332-.62.523-.953h3.19a4.528 4.528 0 0 0-.714-.952h-1.762c.286-.333.572-.62.905-.905C13.429 1 11.286.143 8.952.143h-.047"/>
        <g fill="#FFF">
            <path d="M12.19 11.333l.143-.81c-.047 0-.143.048-.238.048-.333 0-.38-.19-.333-.285l.286-1.667h.523l.143-.905h-.476l.095-.571h-.952s-.571 3.143-.571 3.524c0 .571.333.81.761.81.286 0 .524-.096.62-.144zM12.524 9.81c0 1.333.905 1.666 1.666 1.666.715 0 1-.143 1-.143l.191-.904s-.524.238-1 .238c-1.048 0-.857-.762-.857-.762h1.952s.143-.62.143-.857c0-.62-.333-1.381-1.38-1.381-1-.096-1.715.952-1.715 2.143zm1.666-1.381c.524 0 .429.619.429.666h-1.048c0-.047.096-.666.62-.666zM20.238 11.333l.19-1.047s-.476.238-.809.238c-.667 0-.952-.524-.952-1.095 0-1.143.571-1.762 1.238-1.762.476 0 .857.285.857.285l.143-1s-.572-.238-1.095-.238c-1.096 0-2.191.953-2.191 2.762 0 1.19.571 2 1.714 2 .381 0 .905-.143.905-.143zM6.952 7.571c-.666 0-1.142.19-1.142.19l-.143.81s.428-.19 1.047-.19c.334 0 .62.048.62.333 0 .19-.048.238-.048.238h-.429c-.81 0-1.714.334-1.714 1.429 0 .857.571 1.048.905 1.048.666 0 .952-.429 1-.429L7 11.381h.857l.381-2.62c0-1.142-.952-1.19-1.286-1.19zm.19 2.143c0 .143-.094.905-.666.905-.286 0-.38-.238-.38-.38 0-.239.142-.572.856-.572.143.047.19.047.19.047zM9.143 11.429c.238 0 1.428.047 1.428-1.239 0-1.19-1.142-.952-1.142-1.428 0-.238.19-.333.523-.333.143 0 .667.047.667.047l.143-.857s-.333-.095-.905-.095c-.714 0-1.428.286-1.428 1.238 0 1.095 1.19 1 1.19 1.428 0 .286-.333.334-.571.334-.429 0-.858-.143-.858-.143l-.142.857c.047.095.285.19 1.095.19zM28.143 6.81l-.19 1.285s-.382-.476-.905-.476c-.858 0-1.62 1.048-1.62 2.286 0 .762.382 1.571 1.191 1.571.571 0 .905-.38.905-.38l-.048.333h.953l.714-4.572-1-.047zm-.429 2.523c0 .524-.238 1.19-.762 1.19-.333 0-.523-.285-.523-.761 0-.762.333-1.238.761-1.238.334 0 .524.238.524.81zM1.762 11.381l.571-3.429.096 3.429h.666l1.238-3.429-.523 3.429h1L5.57 6.81H4l-.952 2.809L3 6.809H1.619l-.762 4.572zM16.524 11.381c.286-1.571.333-2.857 1-2.62.095-.618.238-.856.333-1.094h-.19c-.429 0-.762.571-.762.571L17 7.714h-.905l-.619 3.715h1.048v-.048zM22.429 7.571c-.667 0-1.143.19-1.143.19l-.143.81s.428-.19 1.047-.19c.334 0 .62.048.62.333 0 .19-.048.238-.048.238h-.429c-.81 0-1.714.334-1.714 1.429 0 .857.571 1.048.905 1.048.666 0 .952-.429 1-.429l-.048.381h.857l.381-2.62c.048-1.142-.952-1.19-1.285-1.19zm.238 2.143c0 .143-.096.905-.667.905-.286 0-.381-.238-.381-.38 0-.239.143-.572.857-.572.143.047.143.047.19.047zM24.524 11.381c.286-1.571.333-2.857 1-2.62.095-.618.238-.856.333-1.094h-.19c-.429 0-.762.571-.762.571L25 7.714h-.905l-.619 3.715h1.048v-.048z"/>
        </g>
        <g fill="#DCE5E5">
            <path d="M10.714 10.667c0 .571.334.81.762.81.334 0 .62-.096.714-.144l.143-.81c-.047 0-.143.048-.238.048-.333 0-.38-.19-.333-.285l.286-1.667h.523l.143-.905h-.476l.095-.571M13 9.81c0 1.333.429 1.666 1.19 1.666.715 0 1-.143 1-.143l.191-.904s-.524.238-1 .238c-1.048 0-.857-.762-.857-.762h1.952s.143-.62.143-.857c0-.62-.333-1.381-1.38-1.381-1-.096-1.239.952-1.239 2.143zm1.19-1.381c.524 0 .62.619.62.666H13.57c0-.047.096-.666.62-.666zM20.238 11.333l.19-1.047s-.476.238-.809.238c-.667 0-.952-.524-.952-1.095 0-1.143.571-1.762 1.238-1.762.476 0 .857.285.857.285l.143-1s-.572-.238-1.095-.238c-1.096 0-1.715.953-1.715 2.762 0 1.19.095 2 1.238 2 .381 0 .905-.143.905-.143zM5.667 8.619s.428-.19 1.047-.19c.334 0 .62.047.62.333 0 .19-.048.238-.048.238h-.429c-.81 0-1.714.333-1.714 1.429 0 .857.571 1.047.905 1.047.666 0 .952-.428 1-.428l-.048.38h.857l.381-2.618c0-1.096-.952-1.143-1.333-1.143l-1.238.952zm1.952 1.095c0 .143-.571.905-1.143.905-.286 0-.38-.238-.38-.38 0-.239.142-.572.856-.572.143.047.667.047.667.047zM8.095 11.333s.286.096 1.095.096c.239 0 1.429.047 1.429-1.239 0-1.19-1.143-.952-1.143-1.428 0-.238.19-.333.524-.333.143 0 .667.047.667.047l.143-.857s-.334-.095-.905-.095c-.715 0-.953.286-.953 1.238 0 1.095.715 1 .715 1.428 0 .286-.334.334-.572.334M27.952 8.095s-.38-.476-.904-.476c-.858 0-1.143 1.048-1.143 2.286 0 .762-.095 1.571.714 1.571.571 0 .905-.38.905-.38l-.048.333h.953l.714-4.572-1.19 1.238zm-.047 1.238c0 .524-.429 1.19-.953 1.19-.333 0-.523-.285-.523-.761 0-.762.333-1.238.761-1.238.334 0 .715.238.715.81zM1.762 11.381l.571-3.429.096 3.429h.666l1.238-3.429-.523 3.429h1L5.57 6.81h-1.19L3.048 9.619 3 6.809h-.524L.857 11.382zM15.524 11.381h1c.286-1.571.333-2.857 1-2.62.095-.618.238-.856.333-1.094h-.19c-.429 0-.762.571-.762.571L17 7.714M21.143 8.619s.428-.19 1.047-.19c.334 0 .62.047.62.333 0 .19-.048.238-.048.238h-.429c-.81 0-1.714.333-1.714 1.429 0 .857.571 1.047.905 1.047.666 0 .952-.428 1-.428l-.048.38h.857l.381-2.618c0-1.096-.952-1.143-1.333-1.143l-1.238.952zm1.952 1.095c0 .143-.571.905-1.143.905-.285 0-.38-.238-.38-.38 0-.239.142-.572.857-.572.19.047.666.047.666.047zM23.524 11.381h1c.286-1.571.333-2.857 1-2.62.095-.618.238-.856.333-1.094h-.19c-.429 0-.762.571-.762.571L25 7.714"/>
        </g>
    </g>
</svg>
