<?xml version="1.0" encoding="UTF-8"?>
<svg width="23px" height="23px" viewBox="0 0 23 23" version="1.1" xmlns="http://www.w3.org/2000/svg" xmlns:xlink="http://www.w3.org/1999/xlink">
    <!-- Generator: Sketch 47.1 (45422) - http://www.bohemiancoding.com/sketch -->
    <title>001-video</title>
    <desc>Created with Sketch.</desc>
    <defs></defs>
    <g id="Symbols" stroke="none" stroke-width="1" fill="none" fill-rule="evenodd">
        <g id="Services-Copy-2" transform="translate(-924.000000, -107.000000)" fill-rule="nonzero">
            <g id="001-video" transform="translate(924.000000, 107.000000)">
                <rect id="Rectangle-path" fill="#44678D" x="0" y="0" width="23" height="23" rx="3"></rect>
                <path d="M5.80745238,7.05407657 C6.35900074,8.39879251 7.05800572,9.66663051 7.97865012,10.8047931 C8.10075632,10.9562556 8.25467679,11.0909166 8.41682858,11.20055 C8.65366815,11.3611361 8.87712553,11.3046991 8.97342682,11.0372217 C9.07528299,10.7565325 9.16875634,10.1876755 9.17431122,9.89292688 C9.18951137,9.12275144 9.17203877,8.61800933 9.13012473,7.84878116 C9.10295635,7.3561042 8.92555392,6.92350371 8.19150274,6.79293086 C7.96481343,6.75244779 7.94375542,6.56822988 8.08939408,6.38446068 C8.39258913,6.00186576 8.81496145,5.94089187 9.27298595,5.91676157 C10.0153189,5.87717591 10.7603789,5.9094826 11.5036208,5.91676157 C11.8063614,5.91950365 12.1109199,5.9435841 12.4090651,6.00774877 C12.7979567,6.09145698 13.0062139,6.36077908 13.0702969,6.73559646 C13.1034747,6.92893802 13.1205433,7.12771388 13.1158974,7.32334881 C13.0965563,8.16402062 13.0555513,9.00424373 13.0458555,9.84446685 C13.0417146,10.1742643 13.0661055,10.5122879 13.1375614,10.8334603 C13.2375491,11.2810674 13.5462485,11.3934428 13.8619168,11.070027 C14.2627766,10.6592634 14.616218,10.1970485 14.9479449,9.72760439 C15.5506486,8.87372074 16.0007953,7.93662742 16.3883234,6.97041821 C16.5887533,6.47185824 16.7422193,6.36357101 17.2854353,6.3622249 C18.3065219,6.35993153 19.3276085,6.35903412 20.3486951,6.3622249 C20.529784,6.36312231 20.7191546,6.37997364 20.8900932,6.43366855 C21.1674834,6.52101625 21.2776213,6.74437112 21.2126293,7.02780246 C21.0610318,7.69198405 20.6974906,8.2565035 20.3081446,8.79923588 C19.6833224,9.669921 19.0285544,10.5197165 18.389037,11.3803805 C18.3074814,11.4900139 18.2356216,11.6069262 18.1687611,11.7256333 C17.9295986,12.1523508 17.9462127,12.3916097 18.2950082,12.7468835 C18.850243,13.3123503 19.4446648,13.8413722 19.9823765,14.4222943 C20.3731366,14.8449236 20.7348093,15.3034492 21.0444682,15.7861051 C21.4361372,16.3965918 21.1941973,16.971581 20.4625195,17.0739354 C20.0022226,17.1381 17.7537111,17.0744339 17.6375133,17.0739354 C17.0329916,17.0712431 16.5031073,16.864241 16.076392,16.4589118 C15.6018039,16.0076652 15.1704933,15.5126948 14.7147917,15.0418548 C14.5774854,14.8999148 14.4309377,14.7639076 14.2729269,14.6451506 C13.9001444,14.3644614 13.5342803,14.4267814 13.3601098,14.858983 C13.2112897,15.2302107 13.0827196,16.205045 13.0767103,16.2883046 C13.045401,16.7236471 12.7647789,17.0011456 12.2707993,17.0279681 C10.8447119,17.1043974 9.4628111,16.9474507 8.17544411,16.2664676 C7.08431561,15.6896338 6.21300858,14.8739896 5.45825288,13.9227871 C4.25930936,12.411951 3.31230456,10.7511979 2.44771387,9.04168559 C2.40352738,8.95428803 1.52782695,7.11460175 1.50429449,7.02770275 C1.42607179,6.73674315 1.49904261,6.45879597 1.74805241,6.36312231 C1.90328585,6.30349454 4.79050668,6.36292289 4.83853108,6.36546554 C5.29923202,6.3900944 5.61338532,6.58199014 5.80745238,7.05407657 Z" id="Shape" fill="#FFFFFF"></path>
            </g>
        </g>
    </g>
</svg>