<svg xmlns="http://www.w3.org/2000/svg" xmlns:xlink="http://www.w3.org/1999/xlink" width="19" height="25" viewBox="0 0 19 25">
    <defs>
        <path id="a" d="M.005 24.585V.078H18.64v24.507z"/>
    </defs>
    <g fill="none" fill-rule="evenodd">
        <g>
            <mask id="b" fill="#fff">
                <use xlink:href="#a"/>
            </mask>
            <path fill="#FACA22" d="M0 12.234c0-1.376.116-2.25 2.966-4.377 2.359-1.76 9.922-7.78 9.922-7.78v10.048h5.75v14.46H1.798A1.802 1.802 0 0 1 0 22.788V12.234" mask="url(#b)"/>
        </g>
        <path fill="#C9A521" d="M12.888 10.125v5.821l-10.569 7.2 13.362-4.348v-8.673h-2.793"/>
        <path fill="#1D1C1C" d="M8.058 9.824c.618-.737 1.52-.997 2.016-.581.496.416.397 1.35-.221 2.087-.618.736-1.52.996-2.016.58-.496-.416-.397-1.35.221-2.086"/>
    </g>
</svg>
