<svg xmlns="http://www.w3.org/2000/svg" width="28" height="20" viewBox="0 0 28 20">
    <g fill="#9297A7" fill-rule="nonzero">
        <path d="M27.364 0H.636A.63.63 0 0 0 0 .625v18.75A.63.63 0 0 0 .636 20h26.728a.63.63 0 0 0 .636-.625V.625A.63.63 0 0 0 27.364 0zm-.637 17.238l-7.883-7.742-.9.884 8.522 8.37H1.534l8.522-8.37-.9-.884-7.883 7.742V1.25h25.454v15.988z"/>
        <path d="M25.441 1.25L14 12.487 2.559 1.25H1.273v.504L13.55 13.813a.644.644 0 0 0 .9 0L26.727 1.754V1.25h-1.286z"/>
    </g>
</svg>
