<svg xmlns="http://www.w3.org/2000/svg" width="26" height="40" viewBox="0 0 26 40">
    <g fill="#9297A7" fill-rule="nonzero">
        <path d="M23.421 0H2.563C1.156 0 .01 1.136.01 2.531v34.922c0 1.395 1.145 2.531 2.552 2.531H23.42c1.407 0 2.552-1.135 2.552-2.531V2.53C25.973 1.136 24.828 0 23.421 0zM1.29 6.362h23.404v26.443H1.29V6.362zm1.273-5.094H23.42a1.27 1.27 0 0 1 1.273 1.263v2.986H1.29V2.53a1.27 1.27 0 0 1 1.273-1.263zM23.42 38.716H2.563a1.27 1.27 0 0 1-1.273-1.263V33.65h23.404v3.802a1.27 1.27 0 0 1-1.273 1.263z"/>
        <path d="M12.992 34.212a2.088 2.088 0 0 0-2.094 2.077c0 1.145.94 2.077 2.094 2.077a2.088 2.088 0 0 0 2.094-2.077c0-1.145-.94-2.077-2.094-2.077zm0 3.309a1.238 1.238 0 0 1-1.242-1.232c0-.68.557-1.232 1.242-1.232.685 0 1.242.553 1.242 1.232 0 .679-.557 1.232-1.242 1.232zM10.094 4.03h5.796c.236 0 .427-.19.427-.424a.425.425 0 0 0-.427-.422h-5.796a.425.425 0 0 0-.427.422c0 .234.191.423.427.423zM8.56 4.03a.426.426 0 0 0 .426-.423.426.426 0 0 0-.853 0 .426.426 0 0 0 .426.422z"/>
    </g>
</svg>
