<svg xmlns="http://www.w3.org/2000/svg" width="36" height="11" viewBox="0 0 36 11">
    <g fill="none" fill-rule="nonzero">
        <path fill="#3C58BF" d="M13.2 10.671L15.029.386h2.857L16.114 10.67z"/>
        <path fill="#293688" d="M13.2 10.671L15.543.386h2.343L16.114 10.67z"/>
        <path fill="#3C58BF" d="M26.457.5C25.886.271 24.971.043 23.83.043c-2.858 0-4.915 1.428-4.915 3.486 0 1.542 1.429 2.342 2.572 2.857 1.143.514 1.485.857 1.485 1.314 0 .686-.914 1.029-1.714 1.029-1.143 0-1.771-.172-2.743-.572l-.4-.171-.4 2.343c.686.285 1.943.571 3.257.571C24 10.9 26 9.471 26 7.3c0-1.2-.743-2.114-2.457-2.857-1.029-.514-1.657-.8-1.657-1.314 0-.458.514-.915 1.657-.915.971 0 1.657.172 2.171.4L26 2.73 26.457.5z"/>
        <path fill="#293688" d="M26.457.5C25.886.271 24.971.043 23.83.043c-2.858 0-4.4 1.428-4.4 3.486 0 1.542.914 2.342 2.057 2.857 1.143.514 1.485.857 1.485 1.314 0 .686-.914 1.029-1.714 1.029-1.143 0-1.771-.172-2.743-.572l-.4-.171-.4 2.343c.686.285 1.943.571 3.257.571C24 10.9 26 9.471 26 7.3c0-1.2-.743-2.114-2.457-2.857-1.029-.514-1.657-.8-1.657-1.314 0-.458.514-.915 1.657-.915.971 0 1.657.172 2.171.4L26 2.73 26.457.5z"/>
        <path fill="#3C58BF" d="M31.371.386c-.685 0-1.2.057-1.485.743L25.6 10.67h3.086l.571-1.714h3.657l.343 1.714H36L33.6.386h-2.229zm-1.314 6.857c.172-.514 1.143-3.029 1.143-3.029s.229-.628.4-1.028l.171.971s.572 2.572.686 3.143h-2.4v-.057z"/>
        <path fill="#293688" d="M32.057.386c-.686 0-1.2.057-1.486.743L25.6 10.67h3.086l.571-1.714h3.657l.343 1.714H36L33.6.386h-1.543zm-2 6.857c.229-.572 1.143-3.029 1.143-3.029s.229-.628.4-1.028l.171.971s.572 2.572.686 3.143h-2.4v-.057z"/>
        <path fill="#3C58BF" d="M7.943 7.586L7.657 6.1c-.514-1.714-2.171-3.6-4-4.514l2.572 9.143h3.085L13.943.443h-3.086L7.943 7.586z"/>
        <path fill="#293688" d="M7.943 7.586L7.657 6.1c-.514-1.714-2.171-3.6-4-4.514l2.572 9.143h3.085L13.943.443h-2.514L7.943 7.586z"/>
        <path fill="#FFBC00" d="M0 .386L.514.5c3.657.857 6.172 3.029 7.143 5.6L6.63 1.243C6.457.557 5.943.386 5.314.386H0z"/>
        <path fill="#F7981D" d="M0 .386c3.657.857 6.686 3.085 7.657 5.657l-.971-4.057A1.395 1.395 0 0 0 5.314.9L0 .386z"/>
        <path fill="#ED7C00" d="M0 .386c3.657.857 6.686 3.085 7.657 5.657l-.686-2.229c-.171-.685-.4-1.371-1.2-1.657L0 .386z"/>
        <g fill="#051244">
            <path d="M10.8 7.243L8.857 5.3l-.914 2.171-.229-1.428c-.514-1.714-2.171-3.6-4-4.514l2.572 9.142H9.37L10.8 7.243zM16.114 10.671l-2.457-2.514-.457 2.514zM22.686 7.129c.228.228.343.4.285.628 0 .686-.914 1.029-1.714 1.029-1.143 0-1.771-.172-2.743-.572l-.4-.171-.4 2.343c.686.285 1.943.571 3.257.571 1.829 0 3.315-.514 4.172-1.428l-2.457-2.4zM26 10.671h2.686l.571-1.714h3.657l.343 1.714H36L35.029 6.5 31.6 3.186l.171.914s.572 2.571.686 3.143h-2.4c.229-.572 1.143-3.029 1.143-3.029s.229-.628.4-1.028"/>
        </g>
    </g>
</svg>
